Coordinates

Units are S.I. units (second, meters, Newtons, ...)
If the header above contains a line with 'inDegrees', this indicates whether rotational values are in degrees (yes) or radians (no).

inDegrees=no
nColumns=21
nRows=10
DataType=double
version=3
OpenSimVersion=4.6-2026-03-31-d6972f9e6
endheader
time	/jointset/ground_pelvis/pelvis_tilt/value	/jointset/ground_pelvis/pelvis_list/value	/jointset/ground_pelvis/pelvis_rotation/value	/jointset/ground_pelvis/pelvis_tx/value	/jointset/ground_pelvis/pelvis_ty/value	/jointset/ground_pelvis/pelvis_tz/value	/jointset/hip_r/hip_flexion_r/value	/jointset/hip_r/hip_adduction_r/value	/jointset/hip_r/hip_rotation_r/value	/jointset/walker_knee_r/knee_angle_r/value	/jointset/patellofemoral_r/knee_angle_r_beta/value	/jointset/ankle_r/ankle_angle_r/value	/jointset/subtalar_r/subtalar_angle_r/value	/jointset/hip_l/hip_flexion_l/value	/jointset/hip_l/hip_adduction_l/value	/jointset/hip_l/hip_rotation_l/value	/jointset/walker_knee_l/knee_angle_l/value	/jointset/patellofemoral_l/knee_angle_l_beta/value	/jointset/ankle_l/ankle_angle_l/value	/jointset/subtalar_l/subtalar_angle_l/value
144.996	0.0704795049015593	0.04622844563106988	1.398339246382176	0.8435073707565721	0.9953053373576949	-0.9315614611655137	0.2972137293675846	0.1456993478007663	0.1201150584560966	0.840399695934376	0.8403996947830433	0.284782233719138	-0.3420246055080896	0.05083109623230909	-0.09737730767781251	-0.08813293888247492	1.682914318401132	1.682914318981894	-0.2296603780081476	-0.4921562761652774
145	0.06864599889404113	0.0441195743269524	1.400722204995808	0.843138133414604	0.9945991137923159	-0.9300797839003279	0.2874788523486132	0.1413487306950728	0.1200042613495457	0.8410262876307892	0.8410262866862137	0.2938241528197355	-0.3384714293918253	0.07700540741461454	-0.09777281544948241	-0.0821808750260664	1.702039668505319	1.702039669170011	-0.2194212912171042	-0.4870433926120188
145.004	0.06648926883479246	0.04200142146106552	1.403335518381261	0.8427875075240442	0.994207460575507	-0.9286676766338742	0.2767323310246737	0.1363656234790344	0.1194972425680603	0.8396632934884417	0.8396632927495574	0.3014261521107932	-0.3342883051938082	0.1030941848537055	-0.09758847646737558	-0.07610516129102311	1.718963270688069	1.718963271432896	-0.2092294202719281	-0.4815273379791107
145.008	0.06403764229505539	0.03990753596489201	1.40615152319495	0.8424591311807056	0.9941257804509567	-0.927332354603238	0.264958792162924	0.1308025643765472	0.1185749975942549	0.8363623463118613	0.8363623457710263	0.3075898937215414	-0.329554085998312	0.1289703650365307	-0.09685883971408922	-0.07000779641194528	1.733653544803282	1.733653545618181	-0.1991198004761197	-0.475721695964233
145.012	0.06131936253676908	0.03786334524662776	1.409144095069325	0.8421557692601115	0.9943467603886269	-0.9260800276852381	0.2521598227180696	0.1247153704947518	0.1172214497967958	0.831185807053614	0.8311858066982722	0.3123129645151683	-0.3243401984624044	0.1545178211704714	-0.09562126521026343	-0.06398277573398863	1.746094105036372	1.746094105906142	-0.189127027585935	-0.4697429879387016
145.016	0.05836196099951484	0.03588611353949308	1.412289758231805	0.8418791995038729	0.9948607824730606	-0.9249159669659434	0.238353629943665	0.1181620143019982	0.1154241930485956	0.8242055994012254	0.8242055992156619	0.3155861840722088	-0.3187106106629246	0.1796326138008863	-0.09391438567282555	-0.05811397139809481	1.756282659975641	1.756282660881335	-0.1792856399295946	-0.4637081355167254
145.02	0.05519172642081807	0.03398524254026655	1.415568408259038	0.8416301591703493	0.9956563544146247	-0.9238445945563599	0.2235741014327072	0.1112016487722705	0.1131754440281319	0.8155019190875474	0.8155019190546475	0.3173916304142251	-0.3127224535650294	0.2042236044977811	-0.09177665622872934	-0.05247368336085331	1.76422954919183	1.764229550112034	-0.1696306227884941	-0.4577322776495436
145.024	0.05183326776854283	0.03216281740353472	1.418963633812408	0.8414083530146443	0.9967205330325942	-0.9228695836461158	0.2078694371118902	0.1038937754978115	0.1104731096852896	0.8051618963447428	0.805161896447719	0.3177014861184079	-0.3064270873827142	0.2282125493303784	-0.08924505087299264	-0.04712185032680079	1.7699560327696	1.769956033681444	-0.1601979656468936	-0.4519269123157983
145.028	0.04830918731112635	0.03041428879755372	1.422462724473306	0.8412125136745485	0.9980393138136052	-0.9219939561347807	0.1913005532248819	0.09629752497472768	0.1073217236884357	0.7932783039530278	0.7932783041770309	0.3164778123927608	-0.2998713181775295	0.251533840533632	-0.0863539701073108	-0.04210577544298504	1.77349248785864	1.773492488738736	-0.1510250831247227	-0.4463981228567973
145.032	0.04463987652080233	0.02872918345243881	1.426056457951082	0.8410405048916245	0.9995979627583031	-0.9212201664093171	0.1739394541768862	0.08847100500017203	0.1037329894223198	0.7799483963558977	0.7799483966893636	0.3136733435230435	-0.2930984736737001	0.2741340730727281	-0.0831344308272452	-0.03746021652193342	1.774876668573568	1.77487666939924	-0.1421508669423081	-0.4412445818943186
